PathFileType	4	(X/Y/Z)	C:/Users/opensim2020/Desktop/walking_exp_matlab/subject02/subject02_trc/subject02_walking16_run_cyclic.trc	
DataRate	CameraRate	NumFrames	NumMarkers	Units	OrigDataRate	OrigDataStartFrame	OrigNumFrames	
100.00	100.00	4	51	mm	100.00	167	60	
Frame#	Time	RTOE			LSHO			LELB			RELB			RFIN			LTHI			LKNE			RWRB			RUPA			LTIB			RASI			LANK			LTOE			RSHO			RWRA			RFRM			LASI			STRN			LFHD			RTHI			RFHD			LWRB			LFIN			LUPA			RKNE			RBHD			LFRM			C7			LWRA			RTIB			CLAV			LHEE			RANK			LBHD			RBAK			RHEE			T10			LPSI			RPSI			*39			*40			*41			*42			*43			*44			*45			*46			*47			*48			*49			*50			
		X1	Y1	Z1	X2	Y2	Z2	X3	Y3	Z3	X4	Y4	Z4	X5	Y5	Z5	X6	Y6	Z6	X7	Y7	Z7	X8	Y8	Z8	X9	Y9	Z9	X10	Y10	Z10	X11	Y11	Z11	X12	Y12	Z12	X13	Y13	Z13	X14	Y14	Z14	X15	Y15	Z15	X16	Y16	Z16	X17	Y17	Z17	X18	Y18	Z18	X19	Y19	Z19	X20	Y20	Z20	X21	Y21	Z21	X22	Y22	Z22	X23	Y23	Z23	X24	Y24	Z24	X25	Y25	Z25	X26	Y26	Z26	X27	Y27	Z27	X28	Y28	Z28	X29	Y29	Z29	X30	Y30	Z30	X31	Y31	Z31	X32	Y32	Z32	X33	Y33	Z33	X34	Y34	Z34	X35	Y35	Z35	X36	Y36	Z36	X37	Y37	Z37	X38	Y38	Z38	X39	Y39	Z39	X40	Y40	Z40	X41	Y41	Z41	X42	Y42	Z42	X43	Y43	Z43	X44	Y44	Z44	X45	Y45	Z45	X46	Y46	Z46	X47	Y47	Z47	X48	Y48	Z48	X49	Y49	Z49	X50	Y50	Z50	X51	Y51	Z51	

1	0.000	37.79971	-2013.93457	24.55753	-173.79436	-1620.23718	1450.15906	-477.21869	-1680.53723	1334.32324	318.22864	-1588.55212	1145.25525	152.85207	-1342.45007	1179.45410	-175.51295	-1598.30969	673.79333	-132.33061	-1518.67810	510.70840	186.40356	-1378.30579	1130.77844	280.71954	-1638.71936	1279.88916	-162.75079	-1637.62073	386.55746	136.65982	-1712.79004	909.05701	-156.43266	-1766.10254	195.96716	-138.12738	-1662.57947	82.83904	162.87480	-1627.14160	1443.23792	156.48224	-1407.79980	1168.87024	255.79948	-1481.96667	1138.88977	-120.70969	-1651.59131	930.26215	-0.19466	-1567.49023	1198.35718	-95.63352	-1565.46484	1681.44434	151.29007	-1870.82166	627.46912	49.68967	-1561.94849	1676.54932	-567.85425	-1670.39697	1080.67371	-566.69495	-1662.01147	1011.46649	-350.23477	-1662.80151	1398.48450	101.27631	-1903.86780	418.92798	46.74152	-1682.95105	1567.44763	-536.50403	-1672.67468	1203.79553	-17.94997	-1699.89233	1470.13574	-511.89771	-1662.71851	1067.13110	74.50487	-2024.37439	274.87286	-17.17087	-1565.82910	1382.33740	-116.25465	-1822.74854	190.82199	12.35832	-2131.66724	123.50202	-96.05060	-1674.83875	1577.13306	50.93578	-1791.72510	1332.85791	-53.89011	-2176.03662	93.08314	-14.36978	-1818.65625	1234.45093	-73.98813	-1859.74109	1011.25824	32.83694	-1883.30237	1009.96466				-3357.21655	2845.81445	1034.44788																									-10.24748	-1681.32373	1726.93591			 
2	0.010	39.37943	-2012.23511	24.59947	-175.44269	-1588.05591	1457.33936	-476.06006	-1654.28040	1344.40625	319.49277	-1542.91260	1160.23206	143.83464	-1305.04968	1203.24280	-173.31966	-1556.86499	686.72083	-130.60089	-1476.40259	521.79791	178.39278	-1338.26904	1153.38940	280.63913	-1591.54724	1293.79883	-161.82629	-1579.99744	379.73199	138.71188	-1673.00110	914.84253	-152.50809	-1683.99524	175.53479	-131.31551	-1568.27112	76.05046	159.07454	-1587.13000	1453.73145	150.50456	-1369.84753	1191.16003	252.75549	-1438.76367	1157.53186	-117.41944	-1613.69287	942.28387	-2.44456	-1530.47510	1207.07104	-98.53367	-1527.95813	1688.78162	152.85989	-1840.64392	638.26379	46.55668	-1524.91772	1683.98694	-560.16278	-1647.13977	1088.49390	-557.35870	-1635.75354	1019.59271	-349.74789	-1633.70544	1407.70117	103.62779	-1886.48071	431.89316	43.39159	-1646.23926	1575.25244	-532.55371	-1648.52563	1212.70471	-18.20724	-1663.90442	1477.70935	-504.80145	-1634.16174	1077.32678	78.47704	-2011.13501	290.27878	-20.18937	-1529.21094	1390.63574	-112.00506	-1740.50195	164.14938	18.97377	-2120.66187	140.15588	-99.40537	-1637.65344	1584.83435	54.72673	-1753.60388	1341.08667	-46.69189	-2164.80786	114.38844	-9.24061	-1782.11389	1242.24329	-68.95081	-1823.75684	1018.42072	40.18513	-1843.15527	1015.73413				-3357.32715	2845.84424	1034.56946																									-13.69040	-1644.03601	1734.63391			 
3	0.020	41.07983	-2009.80505	24.76256	-176.94173	-1555.66846	1464.64734	-474.21500	-1627.72766	1352.24365	321.36935	-1500.61084	1173.70593	135.75293	-1270.75757	1223.96313	-171.22498	-1515.39941	699.27826	-130.04126	-1438.53796	530.07971	171.04593	-1301.65112	1173.08228	280.35406	-1546.83069	1306.41174	-161.97273	-1524.71790	371.67859	140.20537	-1631.76025	922.37708	-148.15721	-1602.71082	156.37982	-123.26868	-1475.39075	72.17049	155.70297	-1547.03308	1463.58081	145.57483	-1334.75964	1210.82471	249.73959	-1398.71204	1173.92078	-114.08228	-1575.53210	953.37793	-4.48021	-1493.82202	1215.82239	-101.69656	-1490.81445	1696.41309	155.45811	-1806.90088	647.06793	43.72217	-1487.69531	1691.59534	-550.79993	-1622.56787	1093.50391	-546.20068	-1607.56067	1025.29431	-348.72705	-1603.74060	1415.63293	106.35395	-1864.89087	445.60425	40.27942	-1609.51233	1583.31396	-527.01300	-1623.20117	1219.00977	-18.58169	-1627.72595	1485.64185	-495.85004	-1604.69116	1085.16101	83.25690	-1993.46924	307.03009	-22.96016	-1493.03577	1399.28442	-107.14525	-1657.54932	139.39534	25.94213	-2104.62427	158.15698	-102.50936	-1600.40588	1592.56738	58.08872	-1715.29846	1349.33032	-39.33925	-2147.04834	136.29277	-4.73130	-1745.50415	1249.76270	-65.10641	-1786.85352	1025.79529	47.07365	-1803.10400	1022.84857				-3357.25806	2845.93481	1034.74658																									-17.13507	-1606.58081	1742.36914			 
4	0.030	41.96713	-2007.56799	24.33245	-178.23483	-1522.48267	1471.45093	-471.70322	-1600.90076	1357.23315	323.29190	-1461.52991	1185.37341	128.44296	-1239.34045	1241.02966	-168.40335	-1474.93494	710.45874	-130.83311	-1403.38208	534.36957	164.54221	-1268.01501	1189.12866	280.38385	-1505.36255	1317.46338	-161.96037	-1471.28442	362.20285	141.29779	-1589.87427	930.53564	-143.36035	-1521.54224	139.25369	-115.22919	-1384.76050	72.03851	152.67863	-1507.21899	1472.61963	139.40114	-1303.54492	1225.57764	247.21371	-1361.75928	1187.52759	-110.57052	-1537.30750	964.07458	-6.04345	-1457.11548	1224.05652	-104.07924	-1452.88623	1703.27625	158.54877	-1771.51929	655.72058	41.17598	-1450.75378	1698.82813	-538.86084	-1595.38147	1095.34521	-532.93732	-1577.91772	1028.50989	-347.67181	-1572.98047	1422.05542	108.97494	-1839.02832	459.39059	37.51133	-1572.80249	1591.14673	-520.21661	-1596.86609	1222.06335	-18.91727	-1591.37219	1493.48657	-484.94122	-1573.97192	1090.17505	88.69232	-1971.23718	323.77750	-25.49347	-1457.35889	1407.99670	-102.14751	-1574.26648	117.45697	33.53994	-2083.22900	174.90463	-105.33542	-1563.26831	1600.23657	61.20574	-1676.94543	1357.08777	-32.15784	-2123.32520	158.68257	-0.82071	-1708.72192	1256.68250	-62.01770	-1748.98181	1033.91577	52.65644	-1762.89050	1030.58276				-3357.14404	2845.99414	1034.54785																									-20.38138	-1569.06982	1750.29834			 
